<svg xmlns="http://www.w3.org/2000/svg" viewBox="-0.325848 -0.550048 0.651696 0.670096"><title>Guitar amplifier</title><polygon points="0.261,0.0 0.153,-0.0552 0.153,-0.4852 0.261,-0.43" fill="#1e232c"/><polygon points="-0.261,-0.43 0.153,-0.4852 0.261,-0.43 -0.153,-0.3748" fill="#272e3a"/><polygon points="-0.153,0.0552 0.261,0.0 0.261,-0.43 -0.153,-0.3748" fill="#242b36"/><polygon points="0.2412,-0.03562 0.2385,-0.037 0.2385,-0.357 0.2412,-0.35562" fill="#6d6555"/><polygon points="-0.1305,-0.3078 0.2385,-0.357 0.2412,-0.35562 -0.1278,-0.30642" fill="#908570"/><polygon points="-0.1278,0.01358 0.2412,-0.03562 0.2412,-0.35562 -0.1278,-0.30642" fill="#857b68"/><ellipse cx="-0.06975000000000003" cy="-0.34445000000000003" rx="0.00686" ry="0.007" fill="#c7b590"/><ellipse cx="-0.006750000000000013" cy="-0.35285" rx="0.00686" ry="0.007" fill="#c7b590"/><ellipse cx="0.05625" cy="-0.36125" rx="0.00686" ry="0.007" fill="#c7b590"/><ellipse cx="0.11925000000000002" cy="-0.36965000000000003" rx="0.00686" ry="0.007" fill="#c7b590"/><ellipse cx="0.18225000000000002" cy="-0.37805" rx="0.00686" ry="0.007" fill="#c7b590"/></svg>
